<svg width="30" height="31" viewBox="0 0 30 31" fill="none" xmlns="http://www.w3.org/2000/svg">
<path fill-rule="evenodd" clip-rule="evenodd" d="M29.4608 26.4915C28.5348 29.3055 24.9068 30.7088 22.3148 30.4748C18.7747 30.1548 14.9227 28.2773 11.9987 26.2093C7.70066 23.1694 3.67462 18.4671 1.3286 13.4772C-0.329412 9.95134 -0.70141 5.61626 1.76461 2.40235C2.67662 1.21438 3.66262 0.579913 5.14463 0.505915C7.20065 0.405917 7.48866 1.58209 8.19466 3.41404C8.72067 4.784 9.42267 6.18147 9.81467 7.60143C10.5487 10.2514 7.98266 10.3621 7.65865 12.5281C7.45665 13.894 9.11267 15.7258 9.86068 16.6998C11.3267 18.6078 13.0887 20.2534 15.0767 21.5054C16.2147 22.2233 18.0527 23.5171 19.3567 22.8032C21.3648 21.7032 21.1748 18.3174 23.9828 19.4634C25.4368 20.0554 26.8448 20.9097 28.2328 21.6577C30.3788 22.8117 30.2788 24.0076 29.4608 26.4915C30.0728 24.6356 28.8488 28.3475 29.4608 26.4915Z" fill="white"/>
</svg>
