<svg width="44" height="42" viewBox="0 0 44 42" fill="none" xmlns="http://www.w3.org/2000/svg">
<path d="M23.0147 28.8857C22.7542 29.1576 22.3861 29.3125 22 29.3125C21.6139 29.3125 21.2457 29.1576 20.9852 28.8857L13.6518 21.2294C13.1394 20.6944 13.1784 19.8642 13.7388 19.3751C14.2993 18.886 15.169 18.9231 15.6814 19.4581L20.625 24.6193V5.25C20.625 4.52513 21.2406 3.9375 22 3.9375C22.7593 3.9375 23.375 4.52513 23.375 5.25V24.6193L28.3186 19.4581C28.831 18.9231 29.7007 18.886 30.2612 19.3751C30.8216 19.8642 30.8605 20.6944 30.3481 21.2294L23.0147 28.8857Z" fill="white"/>
<path d="M6.875 26.25C6.875 25.5251 6.2594 24.9375 5.5 24.9375C4.74062 24.9375 4.125 25.5251 4.125 26.25V26.3461C4.12496 28.7394 4.12493 30.6684 4.33862 32.1856C4.56049 33.7608 5.03512 35.087 6.13864 36.1403C7.24216 37.1938 8.63159 37.6469 10.2818 37.8586C11.8712 38.0625 13.8922 38.0625 16.3994 38.0625H27.6007C30.1079 38.0625 32.1288 38.0625 33.7183 37.8586C35.3685 37.6469 36.7578 37.1938 37.8615 36.1403C38.9649 35.087 39.4396 33.7608 39.6614 32.1856C39.875 30.6684 39.875 28.7394 39.875 26.3461V26.25C39.875 25.5251 39.2594 24.9375 38.5 24.9375C37.7406 24.9375 37.125 25.5251 37.125 26.25C37.125 28.7619 37.1221 30.5139 36.936 31.8358C36.755 33.12 36.4243 33.7998 35.9168 34.2842C35.4094 34.7686 34.6971 35.0843 33.3518 35.2571C31.9669 35.4347 30.1316 35.4375 27.5 35.4375H16.5C13.8684 35.4375 12.033 35.4347 10.6482 35.2571C9.30298 35.0843 8.59058 34.7686 8.08319 34.2842C7.57579 33.7998 7.24497 33.12 7.06411 31.8358C6.87792 30.5139 6.875 28.7619 6.875 26.25Z" fill="white"/>
</svg>
