<svg width="40" height="40" viewBox="0 0 40 40" fill="none" xmlns="http://www.w3.org/2000/svg">
<path d="M37.4375 22.26L35.475 16.375L31.595 4.70002C31.5491 4.56782 31.4629 4.45334 31.3485 4.37263C31.2342 4.29193 31.0975 4.24905 30.9575 4.25002C30.818 4.24957 30.6818 4.29269 30.568 4.37336C30.4541 4.45403 30.3683 4.56823 30.3225 4.70002L26.4425 16.3675H13.555L9.675 4.69752C9.62909 4.56599 9.54318 4.45213 9.42931 4.37188C9.31543 4.29163 9.17931 4.24902 9.04 4.25002C8.90039 4.2492 8.76404 4.29217 8.65013 4.37289C8.53622 4.45362 8.45049 4.56802 8.405 4.70002L4.53 16.3675L2.57 22.26C2.48326 22.5226 2.48334 22.8061 2.57024 23.0686C2.65714 23.331 2.82623 23.5586 3.0525 23.7175L20.0025 35.7475L36.9475 23.7175C37.1748 23.5593 37.3452 23.3322 37.4334 23.0698C37.5216 22.8073 37.5231 22.5234 37.4375 22.26Z" fill="#FC6D26"/>
<path d="M20 35.7402L26.445 16.3652H13.5575L20 35.7402Z" fill="#E24329"/>
<path d="M20 35.7402L13.5525 16.3652H4.53247L20 35.7402Z" fill="#FC6D26"/>
<path d="M4.525 16.3721L2.565 22.2571C2.47825 22.5196 2.47834 22.8031 2.56523 23.0656C2.65213 23.3281 2.82123 23.5556 3.0475 23.7146L20 35.7496L4.525 16.3746V16.3721Z" fill="#FCA326"/>
<path d="M4.53003 16.3724H13.56L9.67503 4.7049C9.62922 4.57311 9.54341 4.45891 9.42957 4.37824C9.31573 4.29757 9.17955 4.25445 9.04003 4.2549C8.90008 4.25393 8.76334 4.29681 8.64901 4.37751C8.53467 4.45822 8.44848 4.57271 8.40253 4.7049L4.53003 16.3724Z" fill="#E24329"/>
<path d="M20 35.7402L26.445 16.3652H35.48L20 35.7402Z" fill="#FC6D26"/>
<path d="M35.475 16.3721L37.4325 22.2571C37.5197 22.5196 37.5198 22.8032 37.4328 23.0658C37.3459 23.3284 37.1766 23.5559 36.95 23.7146L20 35.7396L35.47 16.3721H35.475Z" fill="#FCA326"/>
<path d="M35.4749 16.3724H26.45L30.3274 4.70491C30.3731 4.57251 30.4592 4.45782 30.5736 4.37706C30.688 4.2963 30.8249 4.25357 30.965 4.25491C31.2524 4.25491 31.5075 4.43741 31.6 4.70491L35.48 16.3724H35.4749Z" fill="#E24329"/>
</svg>
