<svg width="41" height="40" viewBox="0 0 41 40" fill="none" xmlns="http://www.w3.org/2000/svg">
<path d="M33.845 30.0825C33.595 29.8025 33.48 29.285 33.3525 28.7325C33.2275 28.1825 33.085 27.59 32.6325 27.2075V27.205C32.4674 27.062 32.2788 26.9487 32.075 26.87C32.705 25.0075 32.4575 23.1525 31.825 21.4775C31.045 19.42 29.6875 17.6275 28.65 16.4025C27.49 14.9375 26.355 13.5475 26.375 11.495C26.41 8.36004 26.72 2.54754 21.205 2.54004C20.98 2.54004 20.7475 2.55004 20.505 2.57004C14.34 3.06504 15.975 9.57754 15.8825 11.7575C15.77 13.3525 15.4475 14.6075 14.35 16.1675C13.0625 17.7 11.25 20.1775 10.39 22.76C9.98498 23.9775 9.78998 25.22 9.96998 26.395C9.91248 26.445 9.85998 26.4975 9.80998 26.5525C9.43248 26.955 9.15248 27.445 8.83998 27.775C8.54998 28.065 8.13498 28.175 7.67998 28.3375C7.22248 28.5025 6.72248 28.7425 6.41998 29.325V29.3275C6.28577 29.5894 6.21958 29.8809 6.22748 30.175C6.22748 30.445 6.26748 30.7175 6.30748 30.98C6.39248 31.53 6.47748 32.0475 6.36498 32.3975C6.00498 33.385 5.95748 34.065 6.21248 34.56C6.46748 35.0575 6.98748 35.275 7.57998 35.3975C8.76248 35.6475 10.365 35.585 11.6275 36.2525C12.9775 36.96 14.35 37.21 15.4425 36.9625C15.8245 36.8875 16.1834 36.7235 16.4901 36.4837C16.7968 36.2439 17.0425 35.9352 17.2075 35.5825C18.0625 35.5775 19 35.2175 20.5025 35.1325C21.5225 35.0525 22.7975 35.495 24.26 35.415C24.2979 35.5739 24.355 35.7275 24.43 35.8725L24.4325 35.875C25 37.0125 26.0575 37.53 27.1825 37.4425C28.3075 37.3525 29.5025 36.69 30.47 35.5375C31.395 34.4175 32.925 33.955 33.94 33.3425C34.4475 33.035 34.86 32.6525 34.89 32.095C34.9225 31.54 34.595 30.9175 33.845 30.0825Z" fill="#202020"/>
<path d="M34.4275 32.0696C34.41 32.4121 34.16 32.6696 33.7025 32.9446C32.7825 33.4996 31.155 33.9796 30.1175 35.2396C29.2125 36.3146 28.1125 36.9021 27.1425 36.9796C26.175 37.0546 25.34 36.6546 24.845 35.6646V35.6596C24.5375 35.0771 24.665 34.1596 24.9225 33.1921C25.18 32.2246 25.55 31.2296 25.6 30.4221C25.65 29.3846 25.71 28.4796 25.885 27.7821C26.06 27.0821 26.3325 26.6121 26.8175 26.3446C26.8398 26.3325 26.8623 26.3208 26.885 26.3096C26.94 27.2071 27.385 28.1221 28.17 28.3196C29.0275 28.5446 30.265 27.8096 30.7875 27.2071L31.0925 27.1971C31.5525 27.1846 31.935 27.2121 32.33 27.5546C32.6325 27.8096 32.7775 28.2971 32.9025 28.8371C33.0275 29.3796 33.1275 29.9696 33.5 30.3896C34.2175 31.1896 34.45 31.7246 34.4275 32.0696ZM16.98 34.6071V34.6146C16.895 35.7021 16.28 36.2946 15.34 36.5096C14.3975 36.7246 13.12 36.5096 11.845 35.8446C10.4325 35.0946 8.75252 35.1696 7.67752 34.9446C7.13752 34.8321 6.78502 34.6621 6.62502 34.3496C6.46502 34.0346 6.46002 33.4871 6.80252 32.5496V32.5471L6.80502 32.5421C6.97502 32.0196 6.85002 31.4471 6.76752 30.9096C6.68502 30.3746 6.64502 29.8846 6.82752 29.5446L6.83002 29.5421C7.06502 29.0896 7.41002 28.9271 7.83752 28.7746C8.26252 28.6196 8.77002 28.4996 9.17002 28.0996L9.17252 28.0971C9.54252 27.7046 9.82502 27.2146 10.15 26.8671C10.425 26.5746 10.7 26.3796 11.1125 26.3771H11.125C11.2029 26.3778 11.2806 26.3845 11.3575 26.3971C11.9075 26.4796 12.385 26.8646 12.8475 27.4896L14.18 29.9171V29.9196C14.535 30.6596 15.2825 31.4746 15.9175 32.3046C16.5525 33.1371 17.0425 33.9696 16.98 34.6071Z" fill="#F8BF11"/>
<path d="M23.625 11.9696C23.5175 11.7596 23.3 11.5596 22.925 11.4071C22.15 11.0746 21.815 11.0521 21.3825 10.7721C20.6825 10.3196 20.1 10.1621 19.6175 10.1621C19.3859 10.1632 19.1561 10.2029 18.9375 10.2796C18.3475 10.4796 17.9575 10.9046 17.7125 11.1346C17.6625 11.1821 17.6025 11.2221 17.4525 11.3346C17.3025 11.4421 17.0775 11.6096 16.7525 11.8546C16.46 12.0696 16.3675 12.3546 16.4675 12.6846C16.5675 13.0146 16.885 13.3971 17.4675 13.7271C17.83 13.9396 18.08 14.2271 18.365 14.4546C18.5082 14.5736 18.6672 14.672 18.8375 14.7471C19.0175 14.8246 19.2275 14.8771 19.4875 14.8921C20.1075 14.9296 20.5625 14.7421 20.9625 14.5146C21.3625 14.2846 21.7025 14.0046 22.0925 13.8771C22.8925 13.6271 23.465 13.1246 23.645 12.6446C23.6905 12.5373 23.7122 12.4214 23.7087 12.3049C23.7053 12.1884 23.6767 12.0741 23.625 11.9696Z" fill="#D6A312"/>
<path d="M21.595 13.1505C20.9575 13.483 20.215 13.8855 19.4225 13.8855C18.6325 13.8855 18.0075 13.5205 17.56 13.163C17.335 12.988 17.1525 12.808 17.015 12.6805C16.775 12.493 16.805 12.228 16.9025 12.2355C17.0675 12.2555 17.0925 12.473 17.195 12.5705C17.335 12.7005 17.51 12.8705 17.7225 13.038C18.1475 13.3755 18.715 13.703 19.4225 13.703C20.1325 13.703 20.9575 13.288 21.4625 13.003C21.75 12.843 22.1125 12.5555 22.41 12.338C22.635 12.1705 22.6275 11.9705 22.815 11.993C23.0025 12.0155 22.865 12.2155 22.6025 12.443C22.34 12.673 21.9275 12.978 21.595 13.1505Z" fill="#202020"/>
<path d="M31.3425 26.7355C31.2559 26.7329 31.1692 26.7329 31.0825 26.7355H31.0575C31.2775 26.043 30.7925 25.5355 29.505 24.953C28.17 24.3655 27.105 24.423 26.925 25.6155C26.9125 25.678 26.9025 25.7405 26.8975 25.8055C26.794 25.8422 26.6936 25.8873 26.5975 25.9405C25.9675 26.283 25.625 26.9055 25.435 27.6705C25.245 28.433 25.19 29.3555 25.1375 30.3955C25.105 30.9155 24.89 31.6205 24.6725 32.3705C22.485 33.9305 19.4475 34.6055 16.8675 32.8455C16.6925 32.5705 16.4925 32.2955 16.285 32.0255C16.1533 31.8534 16.02 31.6825 15.885 31.513C16.1147 31.5191 16.343 31.4765 16.555 31.388C16.6609 31.3435 16.7567 31.2781 16.8367 31.1956C16.9166 31.1131 16.979 31.0152 17.02 30.908C17.1775 30.483 17.02 29.888 16.515 29.208C16.0125 28.5255 15.16 27.758 13.9075 26.988C12.9875 26.413 12.4725 25.713 12.2325 24.953C11.99 24.1905 12.0225 23.3655 12.2075 22.553C12.565 20.9905 13.4825 19.4705 14.065 18.518C14.2225 18.403 14.1225 18.733 13.475 19.9355C12.895 21.0355 11.8075 23.573 13.295 25.5555C13.335 24.1455 13.67 22.7055 14.2375 21.363C15.06 19.4955 16.7825 16.2605 16.9175 13.6805C16.99 13.7305 17.23 13.8955 17.34 13.9555C17.655 14.143 17.8925 14.4155 18.2 14.663C18.601 15.0014 19.1131 15.1795 19.6375 15.163C20.2375 15.163 20.705 14.9655 21.0925 14.743C21.5175 14.503 21.8525 14.233 22.175 14.1305C22.85 13.918 23.39 13.543 23.695 13.1055C24.22 15.1805 25.445 18.173 26.23 19.633C26.6475 20.408 27.48 22.0555 27.8375 24.038C28.065 24.033 28.315 24.063 28.585 24.133C29.5225 21.7005 27.7875 19.078 26.995 18.348C26.675 18.038 26.6575 17.898 26.82 17.9055C27.6775 18.6655 28.8075 20.198 29.22 21.9255C29.4075 22.713 29.445 23.5405 29.245 24.358C29.345 24.4005 29.445 24.443 29.545 24.493C31.0525 25.2255 31.61 25.863 31.3425 26.7355Z" fill="white"/>
<path d="M20.6 20.1553C19.21 20.1603 17.8525 20.7828 16.705 21.9453C15.555 23.1053 14.67 24.7503 14.16 26.6653L14.3125 26.7603V26.7703C15.4875 27.5153 16.325 28.2653 16.8425 28.9653C17.39 29.7053 17.6325 30.4253 17.4 31.0503C17.2773 31.366 17.0346 31.6203 16.725 31.7578L16.6225 31.7953C16.8075 32.0378 16.9875 32.2878 17.155 32.5453C19.515 34.1153 22.26 33.5353 24.3225 32.1153C24.5225 31.4203 24.705 30.7753 24.73 30.3703C24.7825 29.3328 24.835 28.3903 25.04 27.5703C25.245 26.7453 25.645 25.9953 26.4 25.5828C26.4425 25.5578 26.485 25.5453 26.5275 25.5253C26.5408 25.4458 26.5592 25.3674 26.5825 25.2903C25.9775 23.7353 25.105 22.4403 24.0575 21.5403C23.0075 20.6403 21.815 20.1628 20.6025 20.1553H20.6ZM26.525 25.5428L26.52 25.5553V25.5503L26.5225 25.5403L26.525 25.5428Z" fill="#E6E6E6"/>
<path d="M23.695 9.58262C23.7058 10.1742 23.5164 10.7522 23.1575 11.2226C22.978 11.1424 22.7963 11.0674 22.6125 10.9976L22.295 10.8851C22.3675 10.7976 22.5075 10.6976 22.5625 10.5676C22.6417 10.3747 22.6841 10.1686 22.6875 9.96012L22.69 9.93512C22.6962 9.73481 22.6666 9.535 22.6025 9.34512C22.5522 9.17171 22.4594 9.01359 22.3325 8.88512C22.2822 8.83172 22.2219 8.78878 22.155 8.75875C22.088 8.72872 22.0158 8.7122 21.9425 8.71012H21.925C21.785 8.71206 21.6507 8.76545 21.5475 8.86012C21.411 8.9783 21.3062 9.12868 21.2425 9.29762C21.1637 9.49067 21.1214 9.69664 21.1175 9.90512V9.93012C21.1136 10.0472 21.1211 10.1645 21.14 10.2801C20.8564 10.1492 20.5598 10.0487 20.255 9.98012C20.2405 9.86984 20.2322 9.75883 20.23 9.64762V9.61512C20.2194 9.2309 20.2946 8.84915 20.45 8.49762C20.5824 8.17395 20.798 7.89105 21.075 7.67762C21.32 7.47976 21.6251 7.3713 21.94 7.37012H21.955C22.2675 7.37012 22.535 7.46012 22.81 7.66012C23.0932 7.86739 23.3151 8.14723 23.4525 8.47012C23.61 8.81512 23.6875 9.15262 23.695 9.55262L23.6975 9.58262H23.695ZM18.97 9.99262C18.7253 10.0627 18.492 10.1679 18.2775 10.3051C18.2943 10.1808 18.296 10.0549 18.2825 9.93012V9.91012C18.2672 9.74494 18.2268 9.58307 18.1625 9.43012C18.1111 9.29553 18.0289 9.17482 17.9225 9.07762C17.8834 9.03927 17.8368 9.00947 17.7856 8.9901C17.7344 8.97073 17.6797 8.96223 17.625 8.96512C17.52 8.97512 17.4325 9.02512 17.35 9.12762C17.2622 9.24227 17.2023 9.37579 17.175 9.51762C17.136 9.6855 17.1251 9.85866 17.1425 10.0301V10.0501C17.1569 10.2163 17.1974 10.3791 17.2625 10.5326C17.3224 10.6863 17.4226 10.821 17.5525 10.9226L17.2975 11.1226L17.1025 11.2626C16.9293 11.0923 16.7931 10.888 16.7025 10.6626C16.57 10.3626 16.4975 10.0626 16.4775 9.71012V9.70762C16.4546 9.37846 16.4928 9.04791 16.59 8.73262C16.6646 8.45765 16.8084 8.20635 17.0075 8.00262C17.0911 7.91037 17.1929 7.83651 17.3065 7.78573C17.4201 7.73494 17.5431 7.70834 17.6675 7.70762C17.8775 7.70762 18.0625 7.77762 18.255 7.93262C18.475 8.11325 18.646 8.3462 18.7525 8.61012C18.885 8.91012 18.9525 9.21012 18.975 9.56512C18.9825 9.71512 18.9825 9.85512 18.97 9.99262Z" fill="white"/>
<path d="M20.015 10.8373C20.04 10.9223 20.1775 10.9098 20.2575 10.9498C20.325 10.9848 20.3825 11.0623 20.4575 11.0648C20.5325 11.0673 20.6475 11.0398 20.6575 10.9648C20.67 10.8698 20.5275 10.8073 20.4375 10.7723C20.32 10.7248 20.17 10.7023 20.06 10.7648C20.035 10.7773 20.0075 10.8073 20.015 10.8373ZM19.21 10.8373C19.185 10.9223 19.0475 10.9098 18.97 10.9498C18.9 10.9848 18.845 11.0623 18.7675 11.0648C18.6925 11.0673 18.5775 11.0398 18.5675 10.9648C18.555 10.8698 18.6975 10.8073 18.7875 10.7723C18.905 10.7248 19.0575 10.7023 19.1675 10.7648C19.1925 10.7773 19.2175 10.8073 19.21 10.8373Z" fill="#202020"/>
</svg>
