<svg width="41" height="40" viewBox="0 0 41 40" fill="none" xmlns="http://www.w3.org/2000/svg">
<path d="M20.5 37.4999C17.3675 37.4999 14.8263 35.4074 14.8263 32.8262H26.1725C26.1738 35.4062 23.6338 37.4999 20.5 37.4999Z" fill="#E6522C"/>
<path d="M29.87 31.2786H11.1288V27.8799H29.8713V31.2786H29.87Z" fill="#E6522C"/>
<path d="M29.8038 26.1247H11.1825C11.12 26.0535 11.0575 25.9835 10.9975 25.911C9.74216 24.5278 8.78557 22.9006 8.18752 21.131C8.18002 21.0897 10.5138 21.6072 12.1688 21.9797C12.1688 21.9797 13.02 22.1772 14.265 22.4035C13.0589 21.0144 12.384 19.2429 12.36 17.4035C12.36 13.4035 15.425 9.91348 14.32 7.09098C15.3963 7.17848 16.5475 9.36223 16.625 12.7772C17.716 10.8804 18.2772 8.72525 18.25 6.53723C18.25 4.70348 19.4575 2.57473 20.6663 2.50098C19.5888 4.27598 20.945 5.79848 22.1513 9.57348C22.6038 10.991 22.5463 13.3785 22.895 14.891C23.0113 11.7472 23.5513 7.16098 25.545 5.57848C24.67 7.57848 25.67 10.0672 26.3663 11.2672C27.5772 13.0955 28.2017 15.2497 28.1563 17.4422C28.1499 19.2679 27.4962 21.0321 26.3113 22.421C27.6275 22.171 28.5375 21.951 28.5375 21.951L32.8138 21.1172C32.2336 23.0068 31.2003 24.7259 29.8038 26.1247Z" fill="#E6522C"/>
</svg>
