<svg width="41" height="40" viewBox="0 0 41 40" fill="none" xmlns="http://www.w3.org/2000/svg">
<g clip-path="url(#clip0_169_80)">
<path d="M33.2238 24.7211C34.6318 24.5497 37.7368 24.1806 38.2896 24.8926C38.8422 25.5915 37.6712 28.5323 37.1448 29.8377C36.987 30.2334 37.3291 30.3915 37.6843 30.0883C40 28.1366 40.6054 24.0617 40.1318 23.4683C39.6579 22.8883 35.5923 22.387 33.1184 24.1278C32.7368 24.4046 32.8027 24.7739 33.2238 24.7211Z" fill="#FF9900"/>
<path d="M20.4605 31.8547C25.8685 31.8547 32.1579 30.1533 36.4869 26.9491C37.1973 26.4216 36.5789 25.6173 35.8552 25.9469C31 28.004 25.7237 29.0064 20.9211 29.0064C13.8027 29.0064 6.92107 27.0416 1.3424 23.7976C0.855199 23.5075 0.486932 24.0085 0.894665 24.3779C6.0528 29.0459 12.8816 31.8547 20.4605 31.8547Z" fill="#FF9900"/>
<path d="M11.8686 16.7555C11.8686 17.2435 11.9211 17.6389 12.0131 17.9291C12.1301 18.2554 12.2709 18.5727 12.4344 18.8784C12.5 18.984 12.5264 19.0896 12.5264 19.1819C12.5264 19.3139 12.4475 19.4459 12.2763 19.5776L11.4475 20.1315C11.3291 20.2104 11.2104 20.2501 11.1054 20.2501C10.9736 20.2501 10.8422 20.184 10.7107 20.0653C10.5333 19.8744 10.3746 19.6668 10.2368 19.4456C10.0897 19.1922 9.9536 18.9326 9.82883 18.6675C8.80269 19.8808 7.51309 20.4875 5.96056 20.4875C4.85523 20.4875 3.97389 20.1709 3.32909 19.5381C2.68429 18.9051 2.35522 18.0608 2.35522 17.0061C2.35522 15.8851 2.74989 14.9752 3.55256 14.2896C4.35523 13.6037 5.42109 13.2611 6.77656 13.2611C7.22376 13.2611 7.68429 13.3005 8.17123 13.3664C8.65789 13.4325 9.15789 13.5379 9.68429 13.6565V12.6939C9.68429 11.6917 9.47363 10.9928 9.06563 10.584C8.64483 10.1752 7.93416 9.9776 6.92109 9.9776C6.46056 9.9776 5.98696 10.0301 5.50003 10.1488C5.01628 10.2644 4.54139 10.4142 4.07896 10.5973C3.92934 10.6644 3.7755 10.7217 3.61843 10.7688C3.52643 10.7949 3.46056 10.8083 3.40776 10.8083C3.22376 10.8083 3.13149 10.6765 3.13149 10.3995V9.75333C3.13149 9.5424 3.15816 9.384 3.22376 9.292C3.28936 9.19946 3.40776 9.1072 3.59203 9.01466C4.05256 8.77733 4.60536 8.57973 5.24989 8.42133C5.89469 8.25013 6.57923 8.17066 7.30269 8.17066C8.86856 8.17066 10.0131 8.52693 10.7499 9.23893C11.4736 9.95093 11.8422 11.0325 11.8422 12.4829V16.7555H11.8686ZM6.52643 18.76C6.96056 18.76 7.40803 18.6808 7.88163 18.5227C8.35523 18.3643 8.77629 18.0741 9.13149 17.6787C9.34216 17.428 9.50003 17.1512 9.57896 16.8347C9.65789 16.5181 9.71043 16.1357 9.71043 15.6875V15.1336C9.31147 15.0363 8.90737 14.9616 8.50003 14.9096C8.08983 14.8573 7.67675 14.8307 7.26323 14.8301C6.38163 14.8301 5.73683 15.0016 5.30269 15.3576C4.86856 15.7139 4.65789 16.2149 4.65789 16.8741C4.65789 17.4939 4.81576 17.9555 5.14483 18.272C5.46056 18.6016 5.92109 18.76 6.52616 18.76H6.52643ZM17.092 20.184C16.8552 20.184 16.6974 20.1445 16.592 20.0523C16.487 19.9731 16.3947 19.7883 16.3158 19.5379L13.2238 9.34453C13.1448 9.08053 13.1054 8.90933 13.1054 8.81706C13.1054 8.60613 13.2104 8.48746 13.4211 8.48746H14.7104C14.9606 8.48746 15.1318 8.52693 15.2238 8.6192C15.3291 8.6984 15.4078 8.8832 15.487 9.1336L17.6976 17.8632L19.7502 9.1336C19.8158 8.8696 19.8947 8.6984 20 8.6192C20.1054 8.54 20.2894 8.48746 20.5264 8.48746H21.579C21.8291 8.48746 22 8.52693 22.1054 8.6192C22.2107 8.6984 22.3027 8.8832 22.3552 9.1336L24.4342 17.9688L26.7107 9.1336C26.7894 8.8696 26.8814 8.6984 26.9736 8.6192C27.079 8.54 27.2499 8.48746 27.487 8.48746H28.7104C28.9211 8.48746 29.0395 8.5928 29.0395 8.81706C29.0395 8.88293 29.0264 8.9488 29.0131 9.028C28.9925 9.14044 28.9617 9.25076 28.9211 9.3576L25.7502 19.5515C25.671 19.8152 25.579 19.9864 25.4736 20.0656C25.3686 20.1448 25.1974 20.1976 24.9736 20.1976H23.8422C23.592 20.1976 23.4208 20.1579 23.3158 20.0656C23.2107 19.9733 23.1184 19.8019 23.0659 19.5381L21.0264 11.0328L19 19.5251C18.9342 19.7888 18.8552 19.9603 18.7499 20.0525C18.6448 20.1448 18.4606 20.1843 18.2238 20.1843L17.092 20.184ZM34 20.5403C33.3158 20.5403 32.6315 20.4611 31.9736 20.3029C31.3158 20.1445 30.8027 19.9731 30.4606 19.7752C30.2499 19.6565 30.1054 19.5245 30.0526 19.4061C30.0014 19.2897 29.9745 19.164 29.9736 19.0368V18.3643C29.9736 18.0875 30.079 17.9555 30.2763 17.9555C30.3552 17.9555 30.4342 17.9688 30.5131 17.9949C30.592 18.0216 30.7104 18.0741 30.8422 18.1269C31.3069 18.3317 31.7921 18.4864 32.2896 18.5883C32.8158 18.6939 33.3291 18.7467 33.8552 18.7467C34.6843 18.7467 35.3291 18.6016 35.7763 18.3115C36.2238 18.0213 36.4606 17.5995 36.4606 17.0587C36.4606 16.6896 36.3422 16.3864 36.1054 16.1357C35.8686 15.8851 35.4211 15.6611 34.7763 15.4501L32.8686 14.8565C31.908 14.5533 31.1974 14.1051 30.7632 13.5115C30.3291 12.9312 30.1054 12.2851 30.1054 11.5995C30.1054 11.0456 30.2238 10.5576 30.4606 10.1357C30.6974 9.71386 31.0131 9.34453 31.408 9.0544C31.8027 8.7512 32.2499 8.52693 32.7763 8.3688C33.3027 8.2104 33.8552 8.14453 34.4342 8.14453C34.7238 8.14453 35.0264 8.15786 35.3158 8.19733C35.6184 8.2368 35.8947 8.2896 36.171 8.3424C36.4342 8.40826 36.6843 8.47413 36.9211 8.55306C37.1579 8.63253 37.3422 8.71146 37.4736 8.79066C37.6579 8.89626 37.7896 9.0016 37.8686 9.12026C37.9475 9.22586 37.987 9.37093 37.987 9.55546V10.1755C37.987 10.4525 37.8816 10.5976 37.6843 10.5976C37.579 10.5976 37.408 10.5448 37.1843 10.4392C36.4342 10.0965 35.592 9.92506 34.6579 9.92506C33.908 9.92506 33.3158 10.0437 32.908 10.2941C32.5 10.5448 32.2896 10.9272 32.2896 11.468C32.2896 11.8371 32.4211 12.1533 32.6843 12.404C32.9475 12.6547 33.4342 12.9053 34.1315 13.1293L36 13.7229C36.9475 14.0261 37.6315 14.4483 38.0395 14.9888C38.4475 15.5293 38.6448 16.1491 38.6448 16.8349C38.6448 17.4019 38.5264 17.9163 38.3027 18.3645C38.0659 18.8128 37.7502 19.2085 37.3422 19.5251C36.9342 19.8547 36.4475 20.092 35.8816 20.2635C35.2896 20.448 34.671 20.5403 34 20.5403Z" fill="#252F3E"/>
</g>
<defs>
<clipPath id="clip0_169_80">
<rect width="40" height="40" fill="white" transform="translate(0.5)"/>
</clipPath>
</defs>
</svg>
