<svg width="72" height="57" viewBox="0 0 72 57" fill="none" xmlns="http://www.w3.org/2000/svg">
<path d="M3 24.9375H69V53.4375C69 54.0674 68.6839 54.6715 68.1213 55.1169C67.5587 55.5623 66.7957 55.8125 66 55.8125H6C5.20435 55.8125 4.44129 55.5623 3.87868 55.1169C3.31607 54.6715 3 54.0674 3 53.4375V24.9375Z" fill="#B06550"/>
<path d="M72 29.6875C61.5 39.1875 13.5 39.1875 0 29.6875V13.0625H72V29.6875Z" fill="#C8785C"/>
<path d="M72 29.6875C61.5 39.1875 13.5 39.1875 0 29.6875V13.0625H72V29.6875Z" fill="#C8785C"/>
<path d="M40.5 33.25H31.5C30.6716 33.25 30 33.7817 30 34.4375V39.1875C30 39.8433 30.6716 40.375 31.5 40.375H40.5C41.3284 40.375 42 39.8433 42 39.1875V34.4375C42 33.7817 41.3284 33.25 40.5 33.25Z" fill="#ECF0F1"/>
<path d="M20.9041 9.58044L14.9041 9.44032C14.9052 8.33906 15.1845 7.2491 15.7254 6.23451C16.2663 5.21992 17.058 4.30117 18.0538 3.53226C19.0497 2.76335 20.2296 2.1598 21.5243 1.75708C22.8191 1.35436 24.2024 1.1606 25.5931 1.18719H46.5931C47.9832 1.15432 49.3671 1.34685 50.6598 1.75296C51.9525 2.15907 53.1267 2.77017 54.1101 3.54871C55.0935 4.32724 55.8654 5.25677 56.3784 6.28016C56.8914 7.30354 57.1346 8.39917 57.093 9.49969H51.093C51.1318 9.0239 51.042 8.54702 50.8296 8.10088C50.6172 7.65474 50.287 7.24959 49.8611 6.91245C49.4353 6.57531 48.9235 6.31394 48.36 6.14577C47.7964 5.97759 47.1941 5.90649 46.5931 5.93719H25.5931C24.9761 5.91139 24.3591 5.98743 23.7813 6.16047C23.2034 6.33352 22.6773 6.59979 22.2364 6.94238C21.7955 7.28497 21.4493 7.6964 21.22 8.15054C20.9906 8.60469 20.883 9.09163 20.9041 9.58044Z" fill="#4C5665"/>
<path d="M70.5 9.5V13.0625H0V10.6875C0 10.3726 0.158035 10.0705 0.43934 9.84781C0.720644 9.62511 1.10218 9.5 1.5 9.5H70.5Z" fill="#C8785C"/>
<path d="M70.5 9.5C70.8978 9.5 71.2794 9.62511 71.5607 9.84781C71.842 10.0705 72 10.3726 72 10.6875V13.0625H69V10.6875C69 10.3726 69.158 10.0705 69.4393 9.84781C69.7206 9.62511 70.1022 9.5 70.5 9.5Z" fill="#C8785C"/>
<path d="M48 17.8125H24C23.1716 17.8125 22.5 18.3442 22.5 19V24.9375C22.5 25.5933 23.1716 26.125 24 26.125H48C48.8284 26.125 49.5 25.5933 49.5 24.9375V19C49.5 18.3442 48.8284 17.8125 48 17.8125Z" fill="#B06550"/>
</svg>
