<svg width="66" height="63" viewBox="0 0 66 63" fill="none" xmlns="http://www.w3.org/2000/svg">
<path d="M51.37 26.4072C50.2487 23.2594 48.1125 20.531 45.2674 18.6129C42.4224 16.6947 39.0143 15.6852 35.5315 15.7289C32.0486 15.7726 28.6696 16.8673 25.8783 18.8562C23.087 20.845 21.0267 23.6261 19.9925 26.801C18.869 26.4314 17.6883 26.2451 16.5 26.2497C13.5826 26.2497 10.7847 27.356 8.72183 29.3251C6.65893 31.2942 5.5 33.965 5.5 36.7497C5.5 39.5345 6.65893 42.2052 8.72183 44.1744C10.7847 46.1435 13.5826 47.2497 16.5 47.2497H49.5C52.2501 47.2431 54.8978 46.2534 56.9213 44.4757C58.9448 42.698 60.1973 40.2612 60.432 37.6457C60.6666 35.0302 59.8664 32.4257 58.1891 30.3454C56.5117 28.2652 54.0788 26.8602 51.37 26.4072Z" fill="#92DBFB"/>
<path d="M41.25 36.75C40.8881 36.752 40.5293 36.6858 40.1943 36.5551C39.8592 36.4245 39.5545 36.232 39.2975 35.9887L33.7975 30.7387C33.2797 30.2445 32.9888 29.574 32.9888 28.875C32.9888 28.176 33.2797 27.5055 33.7975 27.0112C34.3154 26.517 35.0177 26.2393 35.75 26.2393C36.4824 26.2393 37.1847 26.517 37.7025 27.0112L41.25 30.4237L53.0475 19.1362C53.5654 18.642 54.2677 18.3643 55 18.3643C55.7324 18.3643 56.4347 18.642 56.9525 19.1362C57.4704 19.6305 57.7613 20.301 57.7613 21C57.7613 21.699 57.4704 22.3695 56.9525 22.8637L43.2025 35.9887C42.9456 36.232 42.6408 36.4245 42.3058 36.5551C41.9707 36.6858 41.6119 36.752 41.25 36.75Z" fill="#E75E88"/>
</svg>
