<svg width="42" height="41" viewBox="0 0 42 41" fill="none" xmlns="http://www.w3.org/2000/svg">
<path d="M21.021 38.9943C30.0256 38.9943 37.3254 31.9261 37.3254 23.2071C37.3254 14.4881 30.0256 7.41992 21.021 7.41992C12.0163 7.41992 4.71655 14.4881 4.71655 23.2071C4.71655 31.9261 12.0163 38.9943 21.021 38.9943Z" fill="#DDDCDC"/>
<path d="M21.0209 7.41933C30.0257 7.41933 37.3253 14.4874 37.3253 23.2065C37.3253 31.9257 30.0257 38.9937 21.0209 38.9937C12.0161 38.9937 4.71655 31.9257 4.71655 23.2065C4.71655 14.4874 12.0161 7.41933 21.0209 7.41933ZM21.0209 6.93945C11.7574 6.93945 4.22095 14.2369 4.22095 23.2065C4.22095 32.1762 11.7574 39.4736 21.0209 39.4736C30.2845 39.4736 37.8209 32.1762 37.8209 23.2065C37.8209 14.2369 30.2845 6.93945 21.0209 6.93945Z" fill="#828084"/>
<path d="M21.021 37.7944C12.2245 37.7944 5.06095 31.0435 4.73251 22.6074C4.72495 22.8067 4.71655 23.006 4.71655 23.2069C4.71655 31.926 12.0162 38.9941 21.021 38.9941C30.0258 38.9941 37.3254 31.926 37.3254 23.2069C37.3254 23.006 37.3178 22.8067 37.3094 22.6074C36.9835 31.0476 29.82 37.7944 21.021 37.7944Z" fill="white"/>
<path d="M21.021 35.7545C28.4344 35.7545 34.4442 29.9354 34.4442 22.7572C34.4442 15.5789 28.4344 9.75977 21.021 9.75977C13.6075 9.75977 7.59778 15.5789 7.59778 22.7572C7.59778 29.9354 13.6075 35.7545 21.021 35.7545Z" fill="#A5A4A4"/>
<path d="M25.452 7.59835C25.452 7.59835 26.0719 3.75932 27.93 2.49944C29.7881 1.23955 37.842 1.89999 31.4001 17.017L30.0989 13.4781C30.0989 13.4781 31.8957 9.0388 31.3379 7.11847C30.7801 5.19814 28.9859 4.89883 28.24 10.1181L25.452 7.59835Z" fill="white"/>
<path d="M29.6142 2.0757C32.4223 2.0757 36.5644 4.90861 31.4026 17.0186L30.1014 13.4797C30.1014 13.4797 31.8982 9.04045 31.3404 7.12012C31.117 6.35231 30.6961 5.84397 30.2232 5.84397C29.5142 5.84397 28.6885 6.98836 28.2425 10.1198L25.452 7.6C25.452 7.6 26.0719 3.76097 27.93 2.50109C28.3004 2.25057 28.9153 2.0757 29.61 2.0757M29.61 1.59582C28.8414 1.59582 28.1249 1.78289 27.6444 2.10824C25.636 3.46979 24.9875 7.36169 24.9606 7.52598L24.9203 7.77731L25.116 7.95137L27.904 10.4728L28.602 11.1039L28.733 10.1873C29.1816 7.03472 29.9788 6.32547 30.2224 6.32547C30.3761 6.32547 30.6768 6.61259 30.8624 7.25188C31.2824 8.69965 30.1216 12.1125 29.6394 13.3057L29.5714 13.4732L29.6335 13.6416L30.9347 17.1813L31.3673 18.3582L31.8595 17.2033C35.2993 9.13398 34.5416 5.29984 33.3018 3.50476C32.9007 2.91369 32.3531 2.42932 31.7089 2.09586C31.0648 1.76241 30.3446 1.5905 29.6142 1.59582H29.61Z" fill="#828084"/>
<path d="M30.4727 4.59949C28.676 5.25912 28.1804 8.79884 28.1804 8.79884C28.1804 8.79884 27.3337 8.61502 26.324 8.38403L28.2425 10.1181C28.9859 4.89881 30.7827 5.19894 31.3405 7.11845C31.8982 9.03796 30.1015 13.4781 30.1015 13.4781L30.8348 15.4724C30.9776 15.0722 31.1439 14.6314 31.3388 14.1377C34.2519 6.81914 32.2695 3.93905 30.4727 4.59949Z" fill="#CACACA"/>
<path d="M31.92 18.3164C31.3051 11.315 26.0081 5.59961 18.7454 5.59961C17.015 5.59929 15.3014 5.92903 13.7026 6.57001C12.1038 7.21099 10.6511 8.15065 9.42738 9.33532C8.20367 10.52 7.23295 11.9265 6.57066 13.4744C5.90838 15.0224 5.5675 16.6815 5.5675 18.3571C5.5675 20.0773 6.04546 21.6723 6.55786 23.2136C8.70658 29.6749 15.4745 33.9702 22.4339 32.7209C29.4991 31.4529 32.5231 25.2144 31.92 18.3164Z" fill="white"/>
<path d="M18.7429 5.59902C26.0055 5.59902 31.3026 11.3145 31.9175 18.3158C32.5231 25.2139 29.4991 31.4523 22.4355 32.7203C21.6361 32.8652 20.8246 32.939 20.0113 32.9407C13.9566 32.9407 8.45542 28.9236 6.55786 23.2171C6.04546 21.6758 5.5675 20.0808 5.5675 18.3605C5.56695 16.6849 5.90733 15.0255 6.56921 13.4772C7.23109 11.9289 8.2015 10.5221 9.425 9.33703C10.6485 8.15196 12.1011 7.21189 13.6999 6.57051C15.2987 5.92914 17.0123 5.59902 18.7429 5.59902ZM18.7429 5.11914C11.2047 5.11914 5.0719 11.0566 5.0719 18.3565C5.0719 20.158 5.5759 21.8165 6.08662 23.3602C8.05474 29.2814 13.781 33.4165 20.0113 33.4165C20.8547 33.4161 21.6962 33.3409 22.5254 33.192C29.2211 31.9907 33.1019 26.1354 32.4114 18.2751C31.7394 10.6524 25.9938 5.11914 18.7429 5.11914Z" fill="#828084"/>
<path d="M22.008 31.1021C16.9428 31.9448 11.9759 30.2579 8.56799 27.0858C11.6575 31.2794 16.9856 33.6975 22.433 32.7199C28.1736 31.6918 31.248 27.381 31.8721 22.1016C30.7726 26.6254 27.5419 30.1765 22.008 31.1021Z" fill="#CACACA"/>
<path d="M18.4615 31.7053C11.2753 31.7053 7.44913 26.3315 7.40629 26.2689C7.37318 26.2161 7.36233 26.1531 7.37601 26.0928C7.38968 26.0325 7.42682 25.9796 7.47971 25.9452C7.5326 25.9107 7.59717 25.8973 7.66 25.9078C7.72282 25.9182 7.77907 25.9517 7.81705 26.0013C7.86493 26.0696 12.6681 32.8001 21.6224 30.8814C21.6859 30.8694 21.7518 30.8818 21.8059 30.9162C21.86 30.9505 21.8981 31.004 21.9121 31.0652C21.926 31.1264 21.9146 31.1904 21.8805 31.2436C21.8463 31.2968 21.792 31.335 21.7291 31.3499C20.6566 31.5834 19.5609 31.7026 18.4615 31.7053Z" fill="#828084"/>
<path d="M23.2244 31.0563C23.167 31.0506 23.1134 31.0262 23.0724 30.9869C23.0315 30.9477 23.0056 30.896 22.9992 30.8405C22.9928 30.7851 23.0063 30.7291 23.0373 30.6821C23.0684 30.6351 23.1151 30.5998 23.1698 30.5821C24.4743 30.2364 25.6854 29.6196 26.7188 28.7748C26.7431 28.7524 26.7719 28.7351 26.8034 28.7238C26.8349 28.7126 26.8684 28.7076 26.9019 28.7093C26.9354 28.711 26.9683 28.7192 26.9984 28.7335C27.0285 28.7478 27.0554 28.7679 27.0772 28.7926C27.0991 28.8172 27.1156 28.8459 27.1256 28.8769C27.1357 28.9079 27.1392 28.9406 27.1358 28.9729C27.1325 29.0053 27.1224 29.0366 27.1061 29.065C27.0899 29.0935 27.0678 29.1184 27.0413 29.1384C25.9498 30.039 24.6644 30.6923 23.279 31.0506C23.261 31.0544 23.2427 31.0563 23.2244 31.0563Z" fill="#828084"/>
<path d="M18.6195 29.0356C24.7785 29.0356 29.7713 24.2011 29.7713 18.2375C29.7713 12.2739 24.7785 7.43945 18.6195 7.43945C12.4605 7.43945 7.46765 12.2739 7.46765 18.2375C7.46765 24.2011 12.4605 29.0356 18.6195 29.0356Z" fill="#8B644B"/>
<path d="M18.6195 7.43886C20.8251 7.43886 22.9812 8.07216 24.8151 9.25867C26.649 10.4452 28.0784 12.1316 28.9224 14.1047C29.7665 16.0778 29.9873 18.2489 29.557 20.3435C29.1267 22.4382 28.0646 24.3622 26.505 25.8723C24.9454 27.3825 22.9583 28.4109 20.7951 28.8275C18.6319 29.2442 16.3896 29.0304 14.3519 28.2131C12.3141 27.3958 10.5724 26.0118 9.34707 24.236C8.12169 22.4603 7.46765 20.3726 7.46765 18.2369C7.46765 15.3731 8.64257 12.6266 10.7339 10.6015C12.8253 8.57651 15.6618 7.43886 18.6195 7.43886ZM18.6195 6.95898C12.1968 6.95898 6.97205 12.018 6.97205 18.2369C6.97205 24.4558 12.1968 29.5149 18.6195 29.5149C25.0421 29.5149 30.2669 24.4558 30.2669 18.2369C30.2669 12.018 25.0413 6.95898 18.6195 6.95898Z" fill="#613F1F"/>
<path d="M18.8673 28.0769C17.2161 28.0759 15.5857 27.7201 14.0937 27.0352C12.6017 26.3504 11.2852 25.3534 10.2393 24.1163C9.19328 22.8792 8.44387 21.4328 8.04505 19.8813C7.64624 18.3299 7.60795 16.7121 7.93297 15.1445C7.50187 16.5432 7.36807 18.0119 7.53964 19.462C7.71122 20.9121 8.18462 22.3135 8.93123 23.5815C9.67785 24.8495 10.6822 25.9578 11.8836 26.8394C13.085 27.721 14.4584 28.3576 15.9211 28.7108C17.3837 29.064 18.9051 29.1265 20.3933 28.8944C21.8815 28.6623 23.3057 28.1404 24.5798 27.3604C25.854 26.5804 26.9515 25.5584 27.8063 24.3561C28.661 23.1539 29.2552 21.7963 29.5529 20.3654C28.8659 22.5931 27.4551 24.5466 25.53 25.9359C23.6048 27.3252 21.2682 28.076 18.8673 28.0769Z" fill="#80543D"/>
<path d="M18.2062 8.15895C20.1142 8.15877 21.9903 8.6327 23.655 9.5354C25.3197 10.4381 26.7173 11.7394 27.7141 13.3147C28.7109 14.89 29.2735 16.6866 29.3481 18.5327C29.4226 20.3787 29.0067 22.2124 28.14 23.8583C28.927 22.6178 29.4468 21.236 29.6682 19.796C29.8896 18.356 29.8079 16.8875 29.4281 15.4789C29.0483 14.0702 28.3783 12.7505 27.4583 11.599C26.5382 10.4475 25.3872 9.488 24.0744 8.77826C22.7617 8.06852 21.3142 7.62316 19.8191 7.46895C18.324 7.31474 16.8121 7.45487 15.3744 7.88092C13.9366 8.30697 12.6027 9.01013 11.4528 9.94813C10.3029 10.8861 9.36082 12.0396 8.68311 13.3392C9.67783 11.7569 11.0764 10.4493 12.7443 9.54199C14.4122 8.63473 16.2931 8.15843 18.2062 8.15895Z" fill="#80543D"/>
<path d="M25.8267 18.5168C25.6645 17.7693 24.9589 14.4972 23.6578 16.2971C22.3566 18.0971 21.861 20.3761 20.3742 21.2765C18.8874 22.1768 17.7702 23.196 17.4006 24.1557C17.4006 24.1557 17.8341 21.9361 16.7807 20.3761C15.7273 18.8161 15.1083 16.3573 15.2326 14.9177C15.3569 13.478 15.4182 12.2181 13.44 13.4203C11.4618 14.6224 9.40803 16.8364 10.4001 20.1963C11.3921 23.5563 15.666 25.4758 16.4716 27.8166C17.7592 27.2691 19.0839 26.8071 20.4364 26.4339C22.7909 25.7751 26.88 23.3765 25.8267 18.5168Z" fill="#BC8E66"/>
<path d="M18.0205 22.4161C18.0205 22.4161 18.5161 21.336 19.5686 20.6162C20.6211 19.8964 22.2331 18.277 22.4187 16.3575C22.4187 16.3575 21.6753 17.4962 20.8084 17.7402C20.2053 17.9069 19.5484 18.0501 19.1175 18.3998C19.257 17.9858 19.5048 17.4726 19.9407 17.0805C20.8084 16.3005 22.3566 14.621 21.6753 14.3208C21.1864 14.1053 20.4153 14.4518 19.9239 15.0602C20.0499 14.6234 20.2196 14.1809 20.4363 13.9011C20.9941 13.1813 22.6044 11.9214 22.2331 10.7819C21.8618 9.64243 21.2419 10.1215 20.9319 10.7217C20.9319 10.7217 21.1176 9.22192 20.1264 9.40168C19.1352 9.58143 19.1352 10.7217 19.383 11.9816C19.6022 13.0927 19.8198 14.7169 19.6131 15.5783C19.569 15.676 19.5336 15.7772 19.5073 15.8808C19.5073 15.8808 20.0029 13.841 19.073 13.2407C18.1431 12.6404 17.3384 13.4213 17.9583 15.161C18.5782 16.9008 18.7639 17.6824 18.7017 19.0001C18.7017 19.0001 18.5774 17.7402 17.8962 16.9602C17.2149 16.1802 16.595 15.8808 16.5328 14.381C16.5328 14.381 15.666 15.8207 16.3472 17.7971C17.0284 19.7736 18.0205 20.8561 18.0205 22.4161Z" fill="#BC8E66"/>
<path d="M11.5147 24.1565C11.3946 24.0394 11.2837 23.9207 11.1729 23.8027C11.2776 23.9287 11.3919 24.047 11.5147 24.1565Z" fill="#BC8E66"/>
<path d="M12.9402 11.7989C13.8693 11.0197 13.5593 9.69959 11.8869 10.8391C10.248 11.9575 6.37312 18.6823 11.172 23.8031C10.5933 23.124 9.48532 21.4338 9.53152 18.4578C9.59452 14.439 12.012 12.5789 12.9402 11.7989Z" fill="#BC8E66"/>
<path d="M28.3668 16.3581C27.5612 12.5784 25.9501 11.4389 25.5788 12.1587C25.2076 12.8786 26.9413 12.4027 27.7469 17.6773C28.6079 23.3179 24.092 26.0158 24.092 26.0158C26.88 25.1163 29.1724 20.1369 28.3668 16.3581Z" fill="#BC8E66"/>
<path d="M18.8899 12.8516C18.9512 12.8607 19.0067 12.8641 19.073 12.8774C19.0135 12.8605 18.9518 12.8518 18.8899 12.8516Z" fill="#A7744D"/>
<path d="M19.8643 14.9297C19.7603 15.1368 19.6759 15.3527 19.6123 15.5747C19.6123 15.5747 19.7173 15.3014 19.8643 14.9297Z" fill="#A7744D"/>
<mask id="mask0_172_6110" style="mask-type:luminance" maskUnits="userSpaceOnUse" x="10" y="12" width="16" height="16">
<path d="M25.8267 18.5168C25.6645 17.7693 24.9589 14.4972 23.6578 16.2971C22.3566 18.0971 21.861 20.3761 20.3742 21.2765C18.8874 22.1768 17.7702 23.196 17.4006 24.1557C17.4006 24.1557 17.8341 21.9361 16.7807 20.3761C15.7273 18.8161 15.1083 16.3573 15.2326 14.9177C15.3569 13.478 15.4182 12.2181 13.44 13.4203C11.4618 14.6224 9.40803 16.8364 10.4001 20.1963C11.3921 23.5563 15.666 25.4758 16.4716 27.8166C17.7592 27.2691 19.0839 26.8071 20.4364 26.4339C22.7909 25.7751 26.88 23.3765 25.8267 18.5168Z" fill="white"/>
</mask>
<g mask="url(#mask0_172_6110)">
<path d="M13.8693 24.3361C12.0725 22.537 10.8335 20.6166 10.957 18.0977C11.0805 15.5787 13.9314 12.758 15.8517 14.0781C15.8517 14.0781 15.7895 12.758 14.8605 12.5783C13.9314 12.3985 9.53236 14.6783 9.90448 18.6369C10.2766 22.5955 12.3825 24.036 13.188 24.9363C13.9936 25.8367 16.1616 27.0958 16.4716 27.8156C16.4716 27.8172 15.666 26.136 13.8693 24.3361Z" fill="#A7744D"/>
<path d="M26.57 19.7175C25.9501 15.0984 23.7821 14.0183 23.2865 17.018C23.2865 17.018 23.7821 15.8183 24.5876 16.5983C25.3932 17.3783 25.8888 22.417 22.7909 24.2169C19.693 26.0169 16.7807 26.679 16.4716 28.1764C16.4716 28.1764 16.9672 27.5761 19.5073 26.8563C22.0475 26.1365 27.1891 24.3365 26.57 19.7175Z" fill="#A7744D"/>
</g>
<mask id="mask1_172_6110" style="mask-type:luminance" maskUnits="userSpaceOnUse" x="16" y="9" width="7" height="14">
<path d="M18.0205 22.4161C18.0205 22.4161 18.5161 21.336 19.5686 20.6162C20.6211 19.8964 22.2331 18.277 22.4187 16.3575C22.4187 16.3575 21.6753 17.4962 20.8084 17.7402C20.2053 17.9069 19.5484 18.0501 19.1175 18.3998C19.257 17.9858 19.5048 17.4726 19.9407 17.0805C20.8084 16.3005 22.3566 14.621 21.6753 14.3208C21.1864 14.1053 20.4153 14.4518 19.9239 15.0602C20.0499 14.6234 20.2196 14.1809 20.4363 13.9011C20.9941 13.1813 22.6044 11.9214 22.2331 10.7819C21.8618 9.64243 21.2419 10.1215 20.9319 10.7217C20.9319 10.7217 21.1176 9.22192 20.1264 9.40168C19.1352 9.58143 19.1352 10.7217 19.383 11.9816C19.6022 13.0927 19.8198 14.7169 19.6131 15.5783C19.569 15.676 19.5336 15.7772 19.5073 15.8808C19.5073 15.8808 20.0029 13.841 19.073 13.2407C18.1431 12.6404 17.3384 13.4213 17.9583 15.161C18.5782 16.9008 18.7639 17.6824 18.7017 19.0001C18.7017 19.0001 18.5774 17.7402 17.8962 16.9602C17.2149 16.1802 16.595 15.8808 16.5328 14.381C16.5328 14.381 15.666 15.8207 16.3472 17.7971C17.0284 19.7736 18.0205 20.8561 18.0205 22.4161Z" fill="white"/>
</mask>
<g mask="url(#mask1_172_6110)">
<path d="M19.8164 19.6556C19.2226 20.173 18.7204 20.781 18.3296 21.4556C18.2682 20.4356 17.4005 18.6959 16.7806 17.5564C16.1607 16.4168 16.5286 14.377 16.5286 14.377C15.3526 15.3367 15.6617 17.793 16.5286 19.2961C17.3955 20.7992 17.8298 22.7122 17.8298 22.7122C17.8298 22.7122 18.7596 21.9924 19.1931 21.3921C19.6265 20.7919 19.5644 21.2726 20.8655 19.8329C22.1667 18.3933 22.4145 16.3534 22.4145 16.3534C21.9852 17.7963 20.7479 18.8764 19.8164 19.6556Z" fill="#A7744D"/>
<path d="M21.1175 14.1363C21.6131 14.6763 20.8083 15.3962 20.2506 16.0558C19.6928 16.7154 19.0746 17.6158 19.0746 17.6158C19.0746 17.6158 18.5177 15.4555 18.3312 14.0159C18.1993 12.9911 18.6311 12.8487 18.8915 12.8512C16.6419 12.5258 17.2955 14.7032 17.8977 15.6979C18.5177 16.7179 18.7033 18.9977 18.7033 18.9977C18.7033 18.9977 19.6945 17.798 19.8793 17.4979C20.0641 17.1977 21.2426 16.3592 21.4283 16.1152C21.6139 15.8712 22.5438 14.3754 22.4816 14.0753C22.4195 13.7751 20.6219 13.5962 21.1175 14.1363Z" fill="#A7744D"/>
<path d="M19.613 15.5742C19.781 14.913 19.8163 12.3371 19.6928 11.6173C19.5694 10.8974 19.755 10.3574 20.3128 9.8775C20.8705 9.39762 21.2418 10.0572 21.2418 10.0572C21.1175 8.07836 19.1972 8.13773 18.6378 8.91855C18.0784 9.69937 18.4522 10.8983 19.1334 12.5176C19.8146 14.137 19.445 16.2363 19.613 15.5742Z" fill="#A7744D"/>
<path d="M21.6132 10.9578C21.4275 12.0965 20.9941 12.4576 20.622 13.1774C20.4002 13.6077 20.0835 14.3779 19.866 14.9294C20.118 14.4219 20.5774 13.7395 21.367 13.3572C22.7304 12.6976 23.4738 9.57753 21.8013 9.09766L21.2436 10.0574C21.2436 10.0574 21.7996 9.81747 21.6132 10.9578Z" fill="#A7744D"/>
</g>
<path d="M16.968 23.4375C17.1327 22.3854 16.9135 21.3106 16.3481 20.398C15.3981 18.838 14.9436 18.5184 14.9025 17.5188C14.8613 16.5192 14.0356 16.7184 14.5723 18.3581C15.1091 19.9979 16.7606 20.3183 16.968 23.4375Z" fill="#CBA988"/>
<path d="M16.4304 26.9566C16.4304 26.9566 15.2325 25.2372 14.117 24.1172C13.0015 22.9972 11.4735 21.0777 11.4735 19.4404C11.4735 17.8031 11.7625 19.0402 12.0103 19.9601C12.2581 20.88 12.9192 22.44 13.9515 23.4396C14.9839 24.4393 16.1406 26.0765 16.4304 26.9566Z" fill="#CBA988"/>
<path d="M17.9172 26.1961C17.9172 26.1961 19.0731 25.1558 20.3129 24.5962C21.5528 24.0366 22.8732 23.1965 23.121 22.5165C23.3688 21.8365 23.8644 22.0366 23.289 22.9964C22.7136 23.9561 19.236 25.0363 17.9172 26.1961Z" fill="#CBA988"/>
<path d="M18.0818 24.1176C18.5115 23.1684 19.2518 22.3824 20.1885 21.8809C21.7576 21.0415 22.6245 19.8816 22.832 19.0813C23.0395 18.281 23.4099 17.5221 23.6989 17.6815C23.9878 17.8409 23.3687 19.6019 22.7077 20.4412C22.0466 21.2806 19.9819 22.1607 19.5274 22.5608C19.073 22.961 18.3716 23.6377 18.0818 24.1176Z" fill="#CBA988"/>
<path d="M18.5774 19.2775C18.5774 19.2775 18.1229 17.3979 17.4627 16.8781C16.8025 16.3584 16.9259 16.9595 17.3384 17.6378C17.7508 18.3161 18.4127 19.9152 18.4127 20.7172C18.5509 20.2542 18.8232 19.8393 19.1973 19.5215L19.8164 19.0018C19.8164 19.0018 21.304 18.1217 20.9319 18.0022C20.5598 17.8826 19.1561 18.4381 18.5774 19.2775Z" fill="#CBA988"/>
<path d="M19.404 16.0792C19.404 16.0792 19.6107 13.9596 19.0731 13.5993C18.5355 13.2389 18.9496 15.4789 19.2411 16.799C19.2411 16.799 19.3654 16.4785 19.7778 16.119C20.1903 15.7595 21.0168 14.7591 20.7279 14.7591C20.4389 14.7591 19.656 15.6391 19.404 16.0792Z" fill="#CBA988"/>
<path d="M20.5186 11.8384C20.5186 11.8384 20.7253 10.4785 20.3506 10.4785C19.976 10.4785 20.144 11.7978 19.9785 13.8377C20.1687 13.3318 20.4181 12.8488 20.7219 12.398C21.1797 11.7579 21.304 10.7583 20.5186 11.8384Z" fill="#CBA988"/>
</svg>
