<svg width="41" height="40" viewBox="0 0 41 40" fill="none" xmlns="http://www.w3.org/2000/svg">
<g clip-path="url(#clip0_169_86)">
<path d="M31.3548 11.34L31.7298 10.7725L32.3848 11.17L32.6748 11.3775C33.3748 11.9175 34.8473 13.2975 35.1648 15.5875C35.7223 15.4875 36.2848 15.4375 36.8473 15.4375C38.1823 15.4375 39.0798 15.7475 39.5898 16.005L39.8523 16.1475L40.0223 16.26L40.4998 16.65L40.3348 17.15C40.0783 17.8355 39.6776 18.4578 39.1598 18.975C38.4348 19.7225 37.1598 20.605 35.1373 20.72L34.6923 20.7325H34.3223C33.3973 23.175 32.1548 25.9275 30.0673 28.3975C28.8287 29.8653 27.3595 31.1217 25.7173 32.1175C23.7485 33.2855 21.5926 34.1043 19.3448 34.5375C17.7348 34.85 16.0998 35.005 14.4623 35C10.8373 35 7.63728 34.28 5.66978 33.02C3.91228 31.8975 2.56228 30.065 1.65478 27.5775C0.860596 25.3045 0.470539 22.91 0.502281 20.5025C0.498167 20.1938 0.604882 19.8939 0.803049 19.6572C1.00122 19.4205 1.27769 19.2627 1.58228 19.2125L1.75228 19.2H28.1023L28.3323 19.1825L28.7048 19.1425C29.3448 19.0575 30.3198 18.8675 31.0048 18.4675C30.1848 17.11 29.9523 15.5225 30.3348 13.8325C30.495 13.1276 30.7471 12.4467 31.0848 11.8075L31.3548 11.34ZM7.72478 14.46L7.82478 14.4775C7.87046 14.4946 7.91158 14.522 7.94496 14.5575C7.97835 14.5931 8.00309 14.6358 8.01728 14.6825L8.03228 14.7825V18.07L8.01728 18.1725C8.00284 18.2194 7.97771 18.2624 7.94388 18.2979C7.91004 18.3335 7.86842 18.3607 7.82228 18.3775L7.72478 18.3925H4.19478C4.12899 18.3916 4.06518 18.3698 4.0126 18.3303C3.96001 18.2907 3.92138 18.2355 3.90228 18.1725L3.88478 18.0725V14.78L3.90228 14.68C3.91639 14.6326 3.94136 14.5892 3.97521 14.5532C4.00907 14.5171 4.05087 14.4895 4.09728 14.4725L4.19478 14.4575L7.72478 14.46ZM12.5923 14.46L12.6898 14.4775C12.7359 14.4943 12.7775 14.5215 12.8114 14.5571C12.8452 14.5926 12.8703 14.6356 12.8848 14.6825L12.8998 14.7825V18.07L12.8823 18.1725C12.8678 18.2194 12.8427 18.2624 12.8089 18.2979C12.775 18.3335 12.7334 18.3607 12.6873 18.3775L12.5898 18.3925H9.05978C8.99409 18.3912 8.93046 18.3693 8.87795 18.3298C8.82544 18.2903 8.78672 18.2353 8.76728 18.1725L8.74978 18.075V14.7825C8.74925 14.7156 8.76937 14.6502 8.8074 14.5951C8.84543 14.5401 8.89952 14.4982 8.96228 14.475L9.05978 14.4575L12.5923 14.46ZM17.5323 14.46L17.6298 14.4775C17.6755 14.4946 17.7166 14.522 17.75 14.5575C17.7833 14.5931 17.8081 14.6358 17.8223 14.6825L17.8398 14.7825V18.07L17.8223 18.1725C17.8078 18.2194 17.7827 18.2624 17.7489 18.2979C17.715 18.3335 17.6734 18.3607 17.6273 18.3775L17.5298 18.3925H13.9998C13.934 18.3916 13.8702 18.3698 13.8176 18.3303C13.765 18.2907 13.7264 18.2355 13.7073 18.1725L13.6923 18.0725V14.78L13.7073 14.68C13.7214 14.6326 13.7464 14.5892 13.7802 14.5532C13.8141 14.5171 13.8559 14.4895 13.9023 14.4725L13.9998 14.4575L17.5323 14.46ZM22.4123 14.46L22.5098 14.4775C22.5559 14.4943 22.5975 14.5215 22.6314 14.5571C22.6652 14.5926 22.6903 14.6356 22.7048 14.6825L22.7223 14.7825V18.07C22.7228 18.1369 22.7027 18.2023 22.6647 18.2574C22.6266 18.3124 22.5725 18.3543 22.5098 18.3775L22.4098 18.3925H18.8823C18.8165 18.3916 18.7527 18.3698 18.7001 18.3303C18.6475 18.2907 18.6089 18.2355 18.5898 18.1725L18.5748 18.0725V14.78L18.5898 14.68C18.6039 14.6326 18.6289 14.5892 18.6627 14.5532C18.6966 14.5171 18.7384 14.4895 18.7848 14.4725L18.8848 14.4575H22.4148L22.4123 14.46ZM27.3373 14.46L27.4348 14.4775C27.4809 14.4943 27.5225 14.5215 27.5564 14.5571C27.5902 14.5926 27.6153 14.6356 27.6298 14.6825L27.6448 14.7825V18.07C27.6453 18.1369 27.6252 18.2023 27.5872 18.2574C27.5491 18.3124 27.495 18.3543 27.4323 18.3775L27.3348 18.3925H23.8048C23.739 18.3916 23.6752 18.3698 23.6226 18.3303C23.57 18.2907 23.5314 18.2355 23.5123 18.1725L23.4973 18.0725V14.78L23.5123 14.68C23.5264 14.6326 23.5514 14.5892 23.5852 14.5532C23.6191 14.5171 23.6609 14.4895 23.7073 14.4725L23.8073 14.4575H27.3348L27.3373 14.46ZM12.5873 9.73L12.6873 9.7475C12.7327 9.76434 12.7736 9.79134 12.807 9.82644C12.8404 9.86154 12.8653 9.9038 12.8798 9.95L12.8973 10.0525V13.34C12.8978 13.4069 12.8777 13.4723 12.8397 13.5274C12.8016 13.5824 12.7475 13.6243 12.6848 13.6475L12.5873 13.665H9.05978C8.99345 13.6634 8.92936 13.6407 8.87677 13.6003C8.82419 13.5598 8.78584 13.5037 8.76728 13.44L8.74978 13.34V10.0525C8.74976 9.98603 8.77012 9.92116 8.80812 9.86662C8.84612 9.81208 8.89992 9.77051 8.96228 9.7475L9.05978 9.73H12.5873ZM17.5273 9.73L17.6273 9.7475C17.6727 9.76434 17.7136 9.79134 17.747 9.82644C17.7804 9.86154 17.8053 9.9038 17.8198 9.95L17.8373 10.0525V13.34C17.8378 13.4069 17.8177 13.4723 17.7797 13.5274C17.7416 13.5824 17.6875 13.6243 17.6248 13.6475L17.5273 13.665H13.9998C13.9335 13.6634 13.8694 13.6407 13.8168 13.6003C13.7642 13.5598 13.7258 13.5037 13.7073 13.44L13.6923 13.34V10.0525L13.7073 9.9525C13.7217 9.90558 13.7468 9.86265 13.7807 9.82708C13.8145 9.79151 13.8561 9.76427 13.9023 9.7475L13.9998 9.73H17.5273ZM22.4098 9.73C22.5448 9.73 22.6598 9.8225 22.7023 9.95L22.7198 10.0525V13.34C22.7203 13.4069 22.7002 13.4723 22.6622 13.5274C22.6241 13.5824 22.57 13.6243 22.5073 13.6475L22.4073 13.665H18.8823C18.816 13.6634 18.7519 13.6407 18.6993 13.6003C18.6467 13.5598 18.6083 13.5037 18.5898 13.44L18.5748 13.34V10.0525L18.5898 9.9525C18.6042 9.90558 18.6293 9.86265 18.6632 9.82708C18.697 9.79151 18.7386 9.76427 18.7848 9.7475L18.8848 9.73H22.4148H22.4098ZM22.4098 5C22.5448 5 22.6598 5.0925 22.7023 5.22L22.7198 5.32V8.61C22.7203 8.67689 22.7002 8.74232 22.6622 8.79736C22.6241 8.85239 22.57 8.89435 22.5073 8.9175L22.4073 8.9325H18.8823C18.8165 8.93162 18.7527 8.90982 18.7001 8.87027C18.6475 8.83072 18.6089 8.77547 18.5898 8.7125L18.5748 8.6125V5.32L18.5898 5.22C18.6042 5.17308 18.6293 5.13015 18.6632 5.09458C18.697 5.05901 18.7386 5.03177 18.7848 5.015L18.8823 5H22.4123H22.4098Z" fill="#2396ED"/>
</g>
<defs>
<clipPath id="clip0_169_86">
<rect width="40" height="40" fill="white" transform="translate(0.5)"/>
</clipPath>
</defs>
</svg>
