<svg width="41" height="38" viewBox="0 0 41 38" fill="none" xmlns="http://www.w3.org/2000/svg">
<path d="M34.4953 32.2032H28.6057V23.5C28.6057 21.425 28.5659 18.7532 25.5416 18.7532C22.4743 18.7532 22.0039 21.0157 22.0039 23.3469V32.2032H16.1143V14.3063H21.7687V16.7532H21.8482C23.0009 14.8969 25.1474 13.7844 27.4264 13.8625C33.3956 13.8625 34.4986 17.5657 34.4986 22.3875L34.4953 32.2V32.2032ZM9.46938 11.8594C8.56465 11.8553 7.69816 11.5147 7.0581 10.9114C6.41804 10.3082 6.0561 9.49106 6.05088 8.63755C6.05088 6.8688 7.5945 5.41255 9.46938 5.41255C11.3442 5.41255 12.8846 6.8688 12.8879 8.63755C12.8879 10.4063 11.3442 11.8594 9.46938 11.8594ZM12.4142 32.2032H6.51794V14.3063H12.4142V32.2032ZM37.4269 0.250046H3.55656C2.78856 0.245838 2.04983 0.527733 1.5009 1.03447C0.951973 1.54121 0.637205 2.23185 0.625 2.9563V35.0438C0.637205 35.7682 0.951973 36.4589 1.5009 36.9656C2.04983 37.4724 2.78856 37.7543 3.55656 37.75H37.4302C38.2 37.7559 38.9411 37.475 39.4925 36.9682C40.0439 36.4615 40.3611 35.7699 40.375 35.0438V2.95317C40.3611 2.22763 40.0437 1.5367 39.4921 1.03095C38.9405 0.525199 38.1993 0.24563 37.4302 0.253171L37.4269 0.250046Z" fill="white"/>
</svg>
