<svg width="42" height="33" viewBox="0 0 42 33" fill="none" xmlns="http://www.w3.org/2000/svg">
<path d="M37.1019 0.550781H4.89809C2.19253 0.550781 0 2.89992 0 5.79794V27.2017C0 30.0998 2.19253 32.4489 4.89809 32.4489H37.1019C39.8067 32.4489 42 30.0998 42 27.2017V5.79794C42 2.89992 39.8068 0.550781 37.1019 0.550781ZM39.6613 28.6155L38.7289 29.7985L25.6723 18.3813L23.6502 20.4427C22.1516 21.9172 19.8484 21.9172 18.3498 20.4427L16.3277 18.3813L3.27108 29.7985L2.33871 28.6155L14.5975 16.6169L2.2584 4.19235L2.98791 3.15674L21 17.7795L39.012 3.15674L39.7409 4.19235L27.4026 16.6169L39.6613 28.6155Z" fill="white"/>
</svg>
